<svg xmlns="http://www.w3.org/2000/svg" width="64" height="64" viewBox="0 0 64 64" fill="none">
  <!-- Gear outline -->
  <path d="M32 4C16.5 4 4 16.5 4 32C4 47.5 16.5 60 32 60C47.5 60 60 47.5 60 32C60 16.5 47.5 4 32 4ZM32 50C22.1 50 14 41.9 14 32C14 22.1 22.1 14 32 14C41.9 14 50 22.1 50 32C50 41.9 41.9 50 32 50Z" fill="#29AAE2"/>
  <rect x="29" y="0" width="6" height="12" fill="#29AAE2"/>
  <rect x="29" y="52" width="6" height="12" fill="#29AAE2"/>
  <rect x="0" y="29" width="12" height="6" fill="#29AAE2"/>
  <rect x="52" y="29" width="12" height="6" fill="#29AAE2"/>
  <rect x="10.5" y="10.5" width="6" height="12" transform="rotate(-45 13.5 16.5)" fill="#29AAE2"/>
  <rect x="47.5" y="47.5" width="6" height="12" transform="rotate(-45 50.5 53.5)" fill="#29AAE2"/>
  <rect x="47.5" y="10.5" width="12" height="6" transform="rotate(-45 53.5 13.5)" fill="#29AAE2"/>
  <rect x="10.5" y="47.5" width="12" height="6" transform="rotate(-45 16.5 50.5)" fill="#29AAE2"/>
  
  <!-- DNA Element -->
  <path d="M24 20 Q40 32 24 44" stroke="#F7941D" stroke-width="4" stroke-linecap="round" fill="none"/>
  <path d="M40 20 Q24 32 40 44" stroke="#29AAE2" stroke-width="4" stroke-linecap="round" fill="none"/>
  <circle cx="22" cy="16" r="4" fill="#29AAE2"/>
  <circle cx="42" cy="16" r="4" fill="#F7941D"/>
</svg>